#!OML:ASF F:\VICON\USERDATA\INSTALL\rory3\rory3.ASF
:FULLY-SPECIFIED
:DEGREES
124
root 0.873605 18.107 -6.54146 -3.99098 -3.49316 1.20532
lowerback 10.3812 0.803202 -0.966524
upperback 0.527581 0.965611 0.22505
thorax -5.29386 0.501238 0.636897
lowerneck -15.5191 -2.87882 -1.69747
upperneck 24.0573 -3.5639 -0.201184
head 10.2749 -1.82312 -0.260974
rclavicle 1.76918e-014 -3.97569e-015
rhumerus -26.8102 -19.1024 -80.8261
rradius 26.1166
rwrist 6.25845
rhand -19.8619 26.1343
rfingers 7.12502
rthumb 6.47316 -3.74683
lclavicle 1.76918e-014 -3.97569e-015
lhumerus -32.6366 6.28434 79.952
lradius 21.9605
lwrist 4.05719
lhand -28.5495 18.9862
lfingers 7.12502
lthumb -1.91661 48.9574
rfemur -21.5672 -0.200734 20.6672
rtibia 76.4849
rfoot 2.58088 -4.7812
rtoes 10.6031
lfemur -5.97393 -0.668904 -26.0932
ltibia 26.5684
lfoot -12.0371 1.07683
ltoes -1.45577
125
root 0.8736 18.0954 -6.39366 -4.06662 -3.15716 1.34683
lowerback 10.6586 0.619395 -1.1881
upperback 0.500485 0.692749 0.246832
thorax -5.47549 0.373438 0.822472
lowerneck -15.5228 -2.87612 -1.71943
upperneck 24.1488 -3.5255 -0.315851
head 10.3067 -1.82138 -0.29376
rclavicle -4.28629e-016 1.43125e-014
rhumerus -27.0857 -19.735 -80.5784
rradius 25.6895
rwrist 6.1914
rhand -18.6045 21.8015
rfingers 7.12502
rthumb 7.68688 -8.03884
lclavicle -4.28629e-016 1.43125e-014
lhumerus -32.2999 6.01693 79.9446
lradius 22.279
lwrist 3.54244
lhand -27.5945 23.3151
lfingers 7.12502
lthumb -0.994288 53.2925
rfemur -22.6778 -0.584048 20.5338
rtibia 76.1175
rfoot 1.33216 -4.65119
rtoes 10.8645
lfemur -5.38979 -0.393393 -26.3417
ltibia 26.8554
lfoot -12.5077 1.07452
ltoes -3.28459
126
root 0.873111 18.1003 -6.24465 -4.15695 -2.90142 1.30762
lowerback 11.0173 0.415971 -1.31974
upperback 0.436844 0.411512 0.422934
thorax -5.7393 0.242681 1.12245
lowerneck -15.6082 -2.76335 -1.8822
upperneck 24.296 -3.30245 -0.390202
head 10.3773 -1.74278 -0.265897
rclavicle 8.89561e-015 9.34288e-015
rhumerus -27.3951 -20.2914 -80.0822
rradius 25.457
rwrist 6.70014
rhand -16.2168 9.87952
rfingers 7.12502
rthumb 9.99098 -19.8634
lclavicle 8.89561e-015 9.34288e-015
lhumerus -31.8715 6.59338 79.7381
lradius 22.4734
lwrist 2.27429
lhand -25.5062 27.3188
lfingers 7.12502
lthumb 1.02271 57.2961
rfemur -23.6148 -0.840704 20.6245
rtibia 75.3828
rfoot 0.259026 -4.30984
rtoes 10.9496
lfemur -4.74919 -0.382806 -26.3822
ltibia 27.002
lfoot -12.7279 1.08269
ltoes -1.06817
127
root 0.878067 18.1066 -6.08963 -4.02176 -2.61774 1.51913
lowerback 11.0024 0.25125 -1.54979
upperback 0.326161 0.16371 0.427638
thorax -5.84097 0.128766 1.29644
lowerneck -15.4166 -2.68393 -1.84609
upperneck 24.2112 -3.17307 -0.509501
head 10.3057 -1.69517 -0.292818
rclavicle -1.38404e-014 -8.54774e-015
rhumerus -27.8503 -20.3151 -79.837
rradius 25.7547
rwrist 7.2528
rhand -17.8072 28.3642
rfingers 7.12502
rthumb 8.45638 -1.44652
lclavicle -1.38404e-014 -8.54774e-015
lhumerus -31.5823 6.44846 79.7445
lradius 22.8314
lwrist 3.09137
lhand -25.0836 27.2375
lfingers 7.12502
lthumb 1.43082 57.2124
rfemur -24.7389 -1.09824 20.3929
rtibia 74.4856
rfoot -0.917244 -4.03182
rtoes 11.7006
lfemur -4.51732 -0.734546 -26.7582
ltibia 27.0971
lfoot -12.8318 1.43547
ltoes -0.264394
128
root 0.878516 18.1026 -5.93254 -4.00206 -2.51713 1.80918
lowerback 10.9614 0.190427 -1.87301
upperback 0.36773 0.0414993 0.400119
thorax -5.77035 0.0761941 1.46921
lowerneck -15.2116 -2.7279 -1.82154
upperneck 23.9076 -3.21881 -0.610206
head 10.1545 -1.72641 -0.331926
rclavicle 2.01269e-015 6.75868e-015
rhumerus -28.2227 -20.3887 -79.6958
rradius 25.839
rwrist 6.94177
rhand -17.3629 23.9573
rfingers 7.12502
rthumb 8.88513 -5.83562
lclavicle 2.01269e-015 6.75868e-015
lhumerus -31.226 5.60806 80.0368
lradius 23.2814
lwrist 5.20289
lhand -25.8961 25.0238
lfingers 7.12502
lthumb 0.646098 55.0025
rfemur -25.7046 -1.14948 20.1114
rtibia 73.4344
rfoot -2.08161 -4.01937
rtoes 13.8499
lfemur -4.06511 -0.677349 -27.1951
ltibia 27.1816
lfoot -12.9688 1.77098
ltoes -0.303324
129
root 0.871369 18.0948 -5.78261 -4.03353 -2.48815 1.76107
lowerback 10.9468 0.139228 -1.96661
upperback 0.556662 -0.0305179 0.504985
thorax -5.56022 0.0407314 1.64278
lowerneck -15.3476 -2.81445 -1.88653
upperneck 23.6758 -3.3057 -0.661669
head 10.098 -1.77774 -0.350226
rclavicle -5.75233e-015 -9.93923e-015
rhumerus -28.3055 -20.3664 -79.748
rradius 25.4069
rwrist 4.76188
rhand -18.1159 23.6474
rfingers 7.12502
rthumb 8.15848 -6.1751
lclavicle -5.75233e-015 -9.93923e-015
lhumerus -30.4166 5.15925 80.2813
lradius 23.4078
lwrist 5.1138
lhand -25.7652 25.9743
lfingers 7.12502
lthumb 0.772566 55.9526
rfemur -26.5283 -1.02286 20.2707
rtibia 72.1993
rfoot -3.22261 -4.20252
rtoes 11.4121
lfemur -3.49474 -0.281193 -27.1875
ltibia 27.3911
lfoot -13.3874 1.94486
ltoes -2.11392
130
root 0.861783 18.0807 -5.63494 -4.0267 -2.1557 1.92019
lowerback 11.0585 0.047262 -2.31213
upperback 0.574865 -0.195817 0.544061
thorax -5.59547 -0.0310072 1.90519
lowerneck -15.2941 -2.87422 -1.84091
upperneck 23.5169 -3.3927 -0.700677
head 10.0295 -1.81838 -0.38018
rclavicle 3.49116e-015 7.15625e-015
rhumerus -28.5708 -20.8153 -79.4861
rradius 25.2642
rwrist 4.95885
rhand -18.3213 23.0128
rfingers 7.12502
rthumb 7.96028 -6.81731
lclavicle 3.49116e-015 7.15625e-015
lhumerus -29.8076 4.80878 80.3603
lradius 23.5492
lwrist 3.80083
lhand -24.4651 29.8788
lfingers 7.12502
lthumb 2.02819 59.8489
rfemur -27.3638 -1.14394 20.1715
rtibia 70.8667
rfoot -4.99097 -4.31164
rtoes 7.72323
lfemur -3.16714 -0.202867 -27.371
ltibia 27.8248
lfoot -13.9007 1.94531
ltoes -3.04014
131
root 0.85605 18.0569 -5.48727 -3.9668 -1.7614 2.01747
lowerback 11.2121 -0.0803484 -2.42797
upperback 0.505062 -0.385526 0.524484
thorax -5.74515 -0.118649 1.98163
lowerneck -15.1585 -2.82631 -1.91625
upperneck 23.3043 -3.37454 -0.43991
head 9.93393 -1.78637 -0.269349
rclavicle -6.95746e-015 -1.23246e-014
rhumerus -29.0576 -20.9812 -79.2862
rradius 25.2166
rwrist 4.77398
rhand -18.4076 23.1528
rfingers 7.12502
rthumb 7.87693 -6.68044
lclavicle -6.95746e-015 -1.23246e-014
lhumerus -29.3823 4.23689 80.4063
lradius 23.8852
lwrist 3.68926
lhand -24.1466 31.8681
lfingers 7.12502
lthumb 2.33577 61.8351
rfemur -28.1861 -1.39368 20.1123
rtibia 69.3703
rfoot -7.83987 -4.63909
rtoes -1.85439
lfemur -2.91838 -0.28284 -27.522
ltibia 28.2729
lfoot -14.3542 2.09244
ltoes -3.26208
132
root 0.851161 18.0392 -5.33176 -3.917 -1.50431 1.92057
lowerback 11.114 -0.191275 -2.36392
upperback 0.632478 -0.517944 0.578781
thorax -5.54894 -0.188872 2.02135
lowerneck -15.3179 -2.8121 -1.99835
upperneck 23.1669 -3.36175 -0.30663
head 9.91929 -1.77138 -0.208592
rclavicle 5.67779e-015 1.27222e-014
rhumerus -29.1545 -21.0968 -79.2264
rradius 25.0533
rwrist 4.53426
rhand -18.4507 23.1595
rfingers 7.12502
rthumb 7.83538 -6.67533
lclavicle 5.67779e-015 1.27222e-014
lhumerus -28.6318 3.85932 80.5082
lradius 24.1058
lwrist 3.72156
lhand -24.6239 31.8298
lfingers 7.12502
lthumb 1.8748 61.8013
rfemur -28.8505 -1.43874 20.2617
rtibia 67.6603
rfoot -6.60311 -5.08562
rtoes 4.94261
lfemur -2.43031 -0.175808 -27.4296
ltibia 28.4284
lfoot -14.7481 2.07367
ltoes -3.11959
133
root 0.844473 18.0403 -5.17537 -3.84021 -1.12888 1.99008
lowerback 11.111 -0.295869 -2.5426
upperback 0.67077 -0.675704 0.632335
thorax -5.49605 -0.262579 2.20266
lowerneck -15.2808 -2.891 -1.96272
upperneck 23.0164 -3.45419 -0.415186
head 9.85654 -1.82358 -0.262209
rclavicle -2.14315e-014 1.59028e-015
rhumerus -29.2983 -21.4475 -78.9306
rradius 24.7674
rwrist 4.74185
rhand -18.1676 24.7661
rfingers 7.12502
rthumb 8.1086 -5.05834
lclavicle -2.14315e-014 1.59028e-015
lhumerus -28.0097 3.49766 80.6288
lradius 24.2557
lwrist 3.72526
lhand -24.7408 31.1778
lfingers 7.12502
lthumb 1.76192 61.1502
rfemur -29.4163 -1.54988 20.1921
rtibia 65.7212
rfoot -6.7264 -5.53594
rtoes 8.46369
lfemur -1.80742 -0.133789 -27.4915
ltibia 28.2172
lfoot -14.9158 1.97954
ltoes -3.88217
134
root 0.837011 18.05 -5.02793 -3.76104 -0.874981 2.13125
lowerback 11.4431 -0.345833 -2.81733
upperback 0.581939 -0.783975 0.684257
thorax -5.7655 -0.302476 2.43559
lowerneck -15.347 -2.9778 -2.03041
upperneck 22.9361 -3.56406 -0.384244
head 9.84351 -1.87643 -0.254699
rclavicle -1.39895e-014 -6.36111e-015
rhumerus -29.6476 -22.0586 -78.4627
rradius 24.567
rwrist 5.45189
rhand -17.8732 26.3179
rfingers 7.12502
rthumb 8.39272 -3.49539
lclavicle -1.39895e-014 -6.36111e-015
lhumerus -27.5735 2.96566 80.7943
lradius 24.3646
lwrist 4.09187
lhand -24.7155 31.424
lfingers 7.12502
lthumb 1.78636 61.3963
rfemur -29.9144 -1.48032 20.0506
rtibia 63.5795
rfoot -7.06384 -5.89954
rtoes 6.04462
lfemur -1.19186 -0.345565 -27.6615
ltibia 27.7478
lfoot -14.7833 1.93988
ltoes -3.73902
135
root 0.833309 18.0551 -4.87474 -3.72577 -0.664733 2.40678
lowerback 11.629 -0.430597 -3.13041
upperback 0.617833 -0.94452 0.654099
thorax -5.81743 -0.372876 2.60961
lowerneck -15.7293 -3.02056 -2.09664
upperneck 22.9812 -3.63036 -0.253957
head 9.93663 -1.89629 -0.214012
rclavicle 3.05631e-015 1.66979e-014
rhumerus -29.8202 -22.2655 -78.3096
rradius 24.373
rwrist 5.54071
rhand -18.1503 25.1635
rfingers 7.12502
rthumb 8.12529 -4.66029
lclavicle 3.05631e-015 1.66979e-014
lhumerus -26.9117 2.69518 80.8166
lradius 24.4236
lwrist 4.18903
lhand -25.1232 30.2829
lfingers 7.12502
lthumb 1.39256 60.2581
rfemur -30.2085 -1.34097 19.7037
rtibia 61.2507
rfoot -7.42842 -6.45516
rtoes 3.80287
lfemur -0.509218 -0.670184 -28.0113
ltibia 27.0794
lfoot -14.5673 1.916
ltoes -2.77005
136
root 0.825512 18.0569 -4.7155 -3.60804 -0.441341 2.51693
lowerback 11.3865 -0.532968 -3.3143
upperback 0.786884 -1.09302 0.667416
thorax -5.48959 -0.450064 2.74419
lowerneck -15.9691 -3.09829 -2.0795
upperneck 22.8665 -3.73433 -0.263671
head 9.94143 -1.94292 -0.23691
rclavicle -9.69075e-016 -1.59028e-015
rhumerus -29.7519 -22.4252 -78.2697
rradius 24.1249
rwrist 5.48077
rhand -18.5394 23.9416
rfingers 7.12502
rthumb 7.74974 -5.8964
lclavicle -9.69075e-016 -1.59028e-015
lhumerus -26.1603 2.3073 80.8488
lradius 24.7733
lwrist 4.0541
lhand -25.3544 30.083
lfingers 7.12502
lthumb 1.16925 60.0596
rfemur -30.5013 -1.22539 19.5563
rtibia 58.7264
rfoot -7.47334 -7.21758
rtoes 2.20896
lfemur 0.294605 -0.722086 -28.1094
ltibia 26.3476
lfoot -14.5463 1.76402
ltoes -2.33474
137
root 0.814333 18.0703 -4.56005 -3.42503 -0.172191 2.29906
lowerback 11.3643 -0.749057 -3.38687
upperback 0.646707 -1.37306 0.966478
thorax -5.59612 -0.578181 3.14553
lowerneck -15.3178 -3.07766 -2.3291
upperneck 22.4827 -3.63316 -0.350328
head 9.6855 -1.93014 -0.196881
rclavicle -3.8266e-015 7.15625e-015
rhumerus -30.1357 -21.9429 -77.9435
rradius 24.0334
rwrist 5.54011
rhand -18.5337 24.4581
rfingers 7.12502
rthumb 7.75525 -5.37972
lclavicle -3.8266e-015 7.15625e-015
lhumerus -26.0736 2.38897 81.0181
lradius 25.1426
lwrist 3.93962
lhand -25.8772 30.7684
lfingers 7.12502
lthumb 0.664317 60.7471
rfemur -30.7681 -1.0497 19.7615
rtibia 55.9971
rfoot -7.10432 -7.9113
rtoes 1.43787
lfemur 1.14373 -0.908326 -27.8463
ltibia 25.6378
lfoot -14.4754 1.756
ltoes -2.65254
